<?xml version="1.0" encoding="utf-8"?>
<!-- Generator: Adobe Illustrator 21.0.0, SVG Export Plug-In . SVG Version: 6.00 Build 0)  -->
<svg version="1.1" id="Capa_1" xmlns="http://www.w3.org/2000/svg" xmlns:xlink="http://www.w3.org/1999/xlink" x="0px" y="0px"
	 viewBox="0 0 512 512" style="enable-background:new 0 0 512 512;" xml:space="preserve">
<style type="text/css">
	.st0{fill:#D7E9FF;}
	.st1{fill:#94C1FF;}
	.st2{fill:#FFFFFF;}
	.st3{fill:#116FFF;}
</style>
<g>
	<path class="st0" d="M239.2,356c-9.6-9.8-22.4-23.5-35.8-40c-32.2-39.9-67.4-96.3-67.4-152c0-66.2,53.7-120,120-120
		s120,53.8,120,120c0,55.7-35.2,112.1-67.4,152c-13.4,16.5-26.2,30.2-35.8,40h-0.1c-10.1,10.2-16.7,16-16.7,16
		S249.4,366.2,239.2,356z"/>
</g>
<path class="st1" d="M256,44c-5.4,0-10.8,0.5-16,1.2c58.7,7.8,104,58,104,118.8c0,55.7-35.2,112.1-67.4,152
	c-13.4,16.5-26.2,30.2-35.8,40h-0.1c-0.3,0.3-0.5,0.5-0.8,0.8c9.7,9.7,16,15.2,16,15.2s6.6-5.8,16.7-16h0.1
	c9.6-9.8,22.4-23.5,35.8-40c32.2-39.9,67.4-96.3,67.4-152C376,97.8,322.3,44,256,44z"/>
<polygon class="st2" points="256,220 216,220 216,152.6 256,124 296,152.6 296,220 "/>
<g>
	<path class="st3" d="M256,380c-1.9,0-3.8-0.7-5.3-2c-5-4.4-122.7-108.7-122.7-214c0-70.6,57.4-128,128-128s128,57.4,128,128
		c0,105.3-117.7,209.6-122.7,214C259.8,379.3,257.9,380,256,380z M256,52c-61.8,0-112,50.2-112,112c0,85.9,89.2,175.6,112,197.1
		c22.8-21.6,112-111.3,112-197.1C368,102.2,317.8,52,256,52z"/>
	<path class="st3" d="M304,228h-96c-4.4,0-8-3.6-8-8s3.6-8,8-8h96c4.4,0,8,3.6,8,8S308.4,228,304,228z"/>
	<path class="st3" d="M216,228c-4.4,0-8-3.6-8-8v-96c0-4.4,3.6-8,8-8s8,3.6,8,8v96C224,224.4,220.4,228,216,228z"/>
	<path class="st3" d="M296,228c-4.4,0-8-3.6-8-8v-67.4c0-4.4,3.6-8,8-8s8,3.6,8,8V220C304,224.4,300.4,228,296,228z"/>
	<path class="st3" d="M200,172c-2.5,0-5-1.2-6.5-3.4c-2.6-3.6-1.7-8.6,1.9-11.2l56-40c3.6-2.6,8.6-1.7,11.2,1.9
		c2.6,3.6,1.7,8.6-1.9,11.2l-56,40C203.2,171.5,201.6,172,200,172z"/>
	<path class="st3" d="M312,172c-1.6,0-3.2-0.5-4.6-1.5l-56-40c-3.6-2.6-4.4-7.6-1.9-11.2c2.6-3.6,7.6-4.4,11.2-1.9l56,40
		c3.6,2.6,4.4,7.6,1.9,11.2C316.9,170.8,314.5,172,312,172z"/>
	<path class="st3" d="M256,228c-4.4,0-8-3.6-8-8v-24c0-4.4,3.6-8,8-8c4.4,0,8,3.6,8,8v24C264,224.4,260.4,228,256,228z"/>
</g>
</svg>
